<?xml version="1.0" standalone="no"?>
<svg xmlns:xlink="http://www.w3.org/1999/xlink" id="wave" style="transform:rotate(0deg); transition: 0.3s" viewBox="0 0 1440 190" version="1.1" xmlns="http://www.w3.org/2000/svg"><defs><linearGradient id="sw-gradient-0" x1="0" x2="0" y1="1" y2="0"><stop stop-color="rgba(96, 54, 233, 0.5)" offset="0%"/><stop stop-color="rgba(129.87, 91.508, 255, 1)" offset="100%"/></linearGradient></defs><path style="transform:translate(0, 0px); opacity:1" fill="url(#sw-gradient-0)" d="M0,133L26.7,139.3C53.3,146,107,158,160,139.3C213.3,120,267,70,320,41.2C373.3,13,427,6,480,22.2C533.3,38,587,76,640,101.3C693.3,127,747,139,800,123.5C853.3,108,907,63,960,63.3C1013.3,63,1067,108,1120,107.7C1173.3,108,1227,63,1280,53.8C1333.3,44,1387,70,1440,91.8C1493.3,114,1547,133,1600,126.7C1653.3,120,1707,89,1760,79.2C1813.3,70,1867,82,1920,91.8C1973.3,101,2027,108,2080,101.3C2133.3,95,2187,76,2240,60.2C2293.3,44,2347,32,2400,50.7C2453.3,70,2507,120,2560,123.5C2613.3,127,2667,82,2720,72.8C2773.3,63,2827,89,2880,85.5C2933.3,82,2987,51,3040,38C3093.3,25,3147,32,3200,34.8C3253.3,38,3307,38,3360,53.8C3413.3,70,3467,101,3520,123.5C3573.3,146,3627,158,3680,161.5C3733.3,165,3787,158,3813,155.2L3840,152L3840,190L3813.3,190C3786.7,190,3733,190,3680,190C3626.7,190,3573,190,3520,190C3466.7,190,3413,190,3360,190C3306.7,190,3253,190,3200,190C3146.7,190,3093,190,3040,190C2986.7,190,2933,190,2880,190C2826.7,190,2773,190,2720,190C2666.7,190,2613,190,2560,190C2506.7,190,2453,190,2400,190C2346.7,190,2293,190,2240,190C2186.7,190,2133,190,2080,190C2026.7,190,1973,190,1920,190C1866.7,190,1813,190,1760,190C1706.7,190,1653,190,1600,190C1546.7,190,1493,190,1440,190C1386.7,190,1333,190,1280,190C1226.7,190,1173,190,1120,190C1066.7,190,1013,190,960,190C906.7,190,853,190,800,190C746.7,190,693,190,640,190C586.7,190,533,190,480,190C426.7,190,373,190,320,190C266.7,190,213,190,160,190C106.7,190,53,190,27,190L0,190Z"/><defs><linearGradient id="sw-gradient-1" x1="0" x2="0" y1="1" y2="0"><stop stop-color="rgba(96, 54, 233, 0.5)" offset="0%"/><stop stop-color="rgba(94.61, 45.439, 255, 1)" offset="100%"/></linearGradient></defs><path style="transform:translate(0, 50px); opacity:0.9" fill="url(#sw-gradient-1)" d="M0,171L26.7,171C53.3,171,107,171,160,145.7C213.3,120,267,70,320,47.5C373.3,25,427,32,480,47.5C533.3,63,587,89,640,95C693.3,101,747,89,800,79.2C853.3,70,907,63,960,53.8C1013.3,44,1067,32,1120,44.3C1173.3,57,1227,95,1280,98.2C1333.3,101,1387,70,1440,72.8C1493.3,76,1547,114,1600,114C1653.3,114,1707,76,1760,57C1813.3,38,1867,38,1920,53.8C1973.3,70,2027,101,2080,98.2C2133.3,95,2187,57,2240,47.5C2293.3,38,2347,57,2400,63.3C2453.3,70,2507,63,2560,50.7C2613.3,38,2667,19,2720,28.5C2773.3,38,2827,76,2880,95C2933.3,114,2987,114,3040,117.2C3093.3,120,3147,127,3200,136.2C3253.3,146,3307,158,3360,155.2C3413.3,152,3467,133,3520,107.7C3573.3,82,3627,51,3680,50.7C3733.3,51,3787,82,3813,98.2L3840,114L3840,190L3813.3,190C3786.7,190,3733,190,3680,190C3626.7,190,3573,190,3520,190C3466.7,190,3413,190,3360,190C3306.7,190,3253,190,3200,190C3146.7,190,3093,190,3040,190C2986.7,190,2933,190,2880,190C2826.7,190,2773,190,2720,190C2666.7,190,2613,190,2560,190C2506.7,190,2453,190,2400,190C2346.7,190,2293,190,2240,190C2186.7,190,2133,190,2080,190C2026.7,190,1973,190,1920,190C1866.7,190,1813,190,1760,190C1706.7,190,1653,190,1600,190C1546.7,190,1493,190,1440,190C1386.7,190,1333,190,1280,190C1226.7,190,1173,190,1120,190C1066.7,190,1013,190,960,190C906.7,190,853,190,800,190C746.7,190,693,190,640,190C586.7,190,533,190,480,190C426.7,190,373,190,320,190C266.7,190,213,190,160,190C106.7,190,53,190,27,190L0,190Z"/></svg>