<?xml version="1.0" standalone="no"?>
<svg xmlns:xlink="http://www.w3.org/1999/xlink" id="wave" style="transform:rotate(0deg); transition: 0.3s" viewBox="0 0 1440 480" version="1.1" xmlns="http://www.w3.org/2000/svg"><defs><linearGradient id="sw-gradient-0" x1="0" x2="0" y1="1" y2="0"><stop stop-color="rgba(96, 54, 233, 0.5)" offset="0%"/><stop stop-color="rgba(129.87, 91.508, 255, 1)" offset="100%"/></linearGradient></defs><path style="transform:translate(0, 0px); opacity:1" fill="url(#sw-gradient-0)" d="M0,432L26.7,360C53.3,288,107,144,160,120C213.3,96,267,192,320,200C373.3,208,427,128,480,112C533.3,96,587,144,640,176C693.3,208,747,224,800,256C853.3,288,907,336,960,352C1013.3,368,1067,352,1120,336C1173.3,320,1227,304,1280,304C1333.3,304,1387,320,1440,280C1493.3,240,1547,144,1600,96C1653.3,48,1707,48,1760,56C1813.3,64,1867,80,1920,96C1973.3,112,2027,128,2080,184C2133.3,240,2187,336,2240,360C2293.3,384,2347,336,2400,312C2453.3,288,2507,288,2560,296C2613.3,304,2667,320,2720,344C2773.3,368,2827,400,2880,392C2933.3,384,2987,336,3040,296C3093.3,256,3147,224,3200,208C3253.3,192,3307,192,3360,232C3413.3,272,3467,352,3520,344C3573.3,336,3627,240,3680,184C3733.3,128,3787,112,3813,104L3840,96L3840,480L3813.3,480C3786.7,480,3733,480,3680,480C3626.7,480,3573,480,3520,480C3466.7,480,3413,480,3360,480C3306.7,480,3253,480,3200,480C3146.7,480,3093,480,3040,480C2986.7,480,2933,480,2880,480C2826.7,480,2773,480,2720,480C2666.7,480,2613,480,2560,480C2506.7,480,2453,480,2400,480C2346.7,480,2293,480,2240,480C2186.7,480,2133,480,2080,480C2026.7,480,1973,480,1920,480C1866.7,480,1813,480,1760,480C1706.7,480,1653,480,1600,480C1546.7,480,1493,480,1440,480C1386.7,480,1333,480,1280,480C1226.7,480,1173,480,1120,480C1066.7,480,1013,480,960,480C906.7,480,853,480,800,480C746.7,480,693,480,640,480C586.7,480,533,480,480,480C426.7,480,373,480,320,480C266.7,480,213,480,160,480C106.7,480,53,480,27,480L0,480Z"/><defs><linearGradient id="sw-gradient-1" x1="0" x2="0" y1="1" y2="0"><stop stop-color="rgba(96, 54, 233, 0.5)" offset="0%"/><stop stop-color="rgba(94.61, 45.439, 255, 1)" offset="100%"/></linearGradient></defs><path style="transform:translate(0, 50px); opacity:0.9" fill="url(#sw-gradient-1)" d="M0,192L26.7,184C53.3,176,107,160,160,184C213.3,208,267,272,320,320C373.3,368,427,400,480,344C533.3,288,587,144,640,120C693.3,96,747,192,800,256C853.3,320,907,352,960,376C1013.3,400,1067,416,1120,368C1173.3,320,1227,208,1280,144C1333.3,80,1387,64,1440,112C1493.3,160,1547,272,1600,272C1653.3,272,1707,160,1760,136C1813.3,112,1867,176,1920,232C1973.3,288,2027,336,2080,328C2133.3,320,2187,256,2240,200C2293.3,144,2347,96,2400,96C2453.3,96,2507,144,2560,136C2613.3,128,2667,64,2720,80C2773.3,96,2827,192,2880,208C2933.3,224,2987,160,3040,160C3093.3,160,3147,224,3200,240C3253.3,256,3307,224,3360,208C3413.3,192,3467,192,3520,184C3573.3,176,3627,160,3680,168C3733.3,176,3787,208,3813,224L3840,240L3840,480L3813.3,480C3786.7,480,3733,480,3680,480C3626.7,480,3573,480,3520,480C3466.7,480,3413,480,3360,480C3306.7,480,3253,480,3200,480C3146.7,480,3093,480,3040,480C2986.7,480,2933,480,2880,480C2826.7,480,2773,480,2720,480C2666.7,480,2613,480,2560,480C2506.7,480,2453,480,2400,480C2346.7,480,2293,480,2240,480C2186.7,480,2133,480,2080,480C2026.7,480,1973,480,1920,480C1866.7,480,1813,480,1760,480C1706.7,480,1653,480,1600,480C1546.7,480,1493,480,1440,480C1386.7,480,1333,480,1280,480C1226.7,480,1173,480,1120,480C1066.7,480,1013,480,960,480C906.7,480,853,480,800,480C746.7,480,693,480,640,480C586.7,480,533,480,480,480C426.7,480,373,480,320,480C266.7,480,213,480,160,480C106.7,480,53,480,27,480L0,480Z"/></svg>